<svg width="40.000000" height="43.000000" viewBox="0 0 40 43" fill="none" xmlns="http://www.w3.org/2000/svg" xmlns:xlink="http://www.w3.org/1999/xlink">
	<desc>
			Created with Pixso.
	</desc>
	<defs>
		<clipPath id="clip1_797">
			<rect id="arcticons:2gis" rx="-0.500000" width="39.000000" height="42.000000" transform="translate(0.500000 0.500000)" fill="white" fill-opacity="0"/>
		</clipPath>
	</defs>
	<rect id="arcticons:2gis" rx="-0.500000" width="39.000000" height="42.000000" transform="translate(0.500000 0.500000)" fill="#FFFFFF" fill-opacity="0"/>
	<g clip-path="url(#clip1_797)">
		<path id="Vector" d="M8 5C6.15 5 5 7.03 5 9L5 34C5 35.96 6.15 38 8 38L33 38C34.84 38 36 35.96 36 34L36 9C36 7.03 34.84 5 33 5L8 5Z" stroke="#000000" stroke-opacity="1.000000" stroke-width="1.000000" stroke-linejoin="round"/>
		<path id="Vector" d="M22 32C21.96 27.76 22.95 24.77 28 25C35.19 5.64 5.18 6.49 13 25C15.37 24.84 19.67 26.24 19 33M36 30L5 35M5 10L15 12M28 14L36 15" stroke="#000000" stroke-opacity="1.000000" stroke-width="1.000000" stroke-linejoin="round" stroke-linecap="round"/>
	</g>
</svg>
