<svg width="46.000000" height="46.000244" viewBox="0 0 46 46.0002" fill="none" xmlns="http://www.w3.org/2000/svg" xmlns:xlink="http://www.w3.org/1999/xlink">
	<desc>
			Created with Pixso.
	</desc>
	<defs/>
	<path id="Vector" d="M6 0C4.01 -0.01 1.72 0.15 0 1C10.24 3.96 18.6 9.15 26 16C25.02 11.52 21.79 7.96 18 5C16.91 5.81 15.3 5.75 14 5C12.69 4.24 11.84 2.34 12 1C9.74 0.09 8.24 0 6 0ZM16 1C15.49 1.01 14.19 0.65 14 1C13.66 1.58 14.03 2.44 15 3C15.96 3.55 17.66 3.58 18 3C18.33 2.41 17.96 1.55 17 1C16.63 0.79 16.33 1 16 1ZM11 8L1 26C1.58 26.82 2.82 26.92 4 27L14 9C13.21 8.48 11.86 8.43 11 8ZM30 8L29 10L28 16L31 10L30 8ZM17 15L14 16L16 18L24 17L17 15ZM37 15L19 20L18 21L14 29L15 30L36 45L37 46L37 45L46 20L45 19L37 15ZM37 17L43 20L37 22L33 18L37 17ZM31 18L35 23L25 25L25 20L31 18ZM24 21L23 26L17 28L20 22L24 21ZM43 22L37 40L37 24L43 22ZM35 24L35 40L25 27L35 24ZM24 28L33 41L18 30L24 28Z" fill="#979797" fill-opacity="1.000000" fill-rule="evenodd"/>
</svg>
