<svg width="40.000000" height="44.000000" viewBox="0 0 40 44" fill="none" xmlns="http://www.w3.org/2000/svg" xmlns:xlink="http://www.w3.org/1999/xlink">
	<desc>
			Created with Pixso.
	</desc>
	<defs/>
	<path id="Vector" d="M26 1C27.14 1 28 1.84 28 3L28 41C28 42.15 27.14 43 26 43L3 43C1.85 43 1 42.15 1 41L1 3C1 1.84 1.85 1 3 1L26 1Z" stroke="#979797" stroke-opacity="1.000000" stroke-width="2.000000" stroke-linejoin="round"/>
	<path id="Vector" d="M9 32L20 32M39 11L19 11C18.32 10.15 17.07 9.31 16 9C14.92 8.68 14.06 8.66 13 9C11.93 9.33 10.65 10.13 10 11C9.34 11.86 9 12.93 9 14C9 15.06 9.34 16.13 10 17C10.65 17.86 11.93 18.66 13 19C14.06 19.33 14.92 19.31 16 19C17.07 18.68 18.32 17.84 19 17L39 17L39 11Z" stroke="#979797" stroke-opacity="1.000000" stroke-width="2.000000" stroke-linejoin="round" stroke-linecap="round"/>
</svg>
