<svg width="35.000000" height="35.000000" viewBox="0 0 35 35" fill="none" xmlns="http://www.w3.org/2000/svg" xmlns:xlink="http://www.w3.org/1999/xlink">
	<desc>
			Created with Pixso.
	</desc>
	<defs>
		<clipPath id="clip1_750">
			<rect id="basil:vk-solid" rx="-0.500000" width="21.000000" height="21.000000" transform="translate(6.500000 7.500000)" fill="white" fill-opacity="0"/>
		</clipPath>
	</defs>
	<circle id="Ellipse 17" cx="17.500000" cy="17.500000" r="17.500000" fill="#868686" fill-opacity="0"/>
	<circle id="Ellipse 17" cx="17.500000" cy="17.500000" r="17.000000" stroke="#2C2C2C" stroke-opacity="1.000000" stroke-width="1.000000"/>
	<rect id="basil:vk-solid" rx="-0.500000" width="21.000000" height="21.000000" transform="translate(6.500000 7.500000)" fill="#FFFFFF" fill-opacity="0"/>
	<g clip-path="url(#clip1_750)">
		<path id="Vector" d="M25 24L23 24C22.21 24 22.4 23.36 21 22C19.77 20.85 19.31 21 19 21C18.57 21 18 20.42 18 21L18 23C18 23.48 18.31 24 17 24C15.72 23.91 14.09 23.63 13 23C11.9 22.36 10.67 21.05 10 20C8.39 18.05 7.54 16.43 7 14C7 13.69 7.4 13 8 13L10 13C10.53 13 10.79 13.46 11 14C12 16.86 13.3 19 14 19C14.26 19 15 18.64 15 18L15 15C14.91 13.65 14 13.48 14 13L18 13C18.44 13 18 13.48 18 14L18 18C18.26 18 18.51 18.47 19 18C20.04 16.75 21.36 15.48 22 14C22.06 13.82 21.83 13.1 22 13C22.16 12.89 22.8 12.98 23 13L25 13C25.62 13 26.13 13.57 26 14C25.24 15.63 24.09 16.55 23 18C22.77 18.33 22.68 18.61 23 19C23.2 19.3 23.51 20.44 24 21C24.71 21.68 25.55 22.13 26 23C26.17 23.56 25.59 24 25 24Z" fill="#2C2C2C" fill-opacity="1.000000" fill-rule="evenodd"/>
	</g>
</svg>
