<svg width="31.000000" height="43.061523" viewBox="0 0 31 43.0615" fill="none" xmlns="http://www.w3.org/2000/svg" xmlns:xlink="http://www.w3.org/1999/xlink">
	<desc>
			Created with Pixso.
	</desc>
	<defs/>
	<path id="Vector" d="M1 1L24 1C25.64 1 26.83 1.84 28 3C29.16 4.15 30 5.36 30 7L30 36C30 36.54 29.38 36.61 29 37C28.61 37.38 28.54 38 28 38L22 38" stroke="#979797" stroke-opacity="1.000000" stroke-width="2.000000" stroke-linejoin="round" stroke-linecap="round"/>
	<path id="Vector" d="M17 4C18.41 4.28 20.08 4.89 21 6C21.91 7.1 21.99 8.57 22 10L22 40C21.99 40.3 22.13 40.72 22 41C21.86 41.27 21.23 41.8 21 42C20.76 42.19 20.29 41.92 20 42C19.7 42.07 19.3 42.05 19 42L4 39C3.05 38.81 2.61 38.73 2 38C1.38 37.26 0.99 35.95 1 35L1 1L17 4ZM16 22L16 26" stroke="#979797" stroke-opacity="1.000000" stroke-width="2.000000" stroke-linejoin="round" stroke-linecap="round"/>
</svg>
