<svg width="35.000000" height="35.000000" viewBox="0 0 35 35" fill="none" xmlns="http://www.w3.org/2000/svg" xmlns:xlink="http://www.w3.org/1999/xlink">
	<desc>
			Created with Pixso.
	</desc>
	<defs>
		<clipPath id="clip1_680">
			<rect id="mdi:telephone" rx="-0.500000" width="21.000000" height="21.000000" transform="translate(7.500000 7.500000)" fill="white" fill-opacity="0"/>
		</clipPath>
	</defs>
	<circle id="Ellipse 19" cx="17.500000" cy="17.500000" r="17.500000" fill="#D9D9D9" fill-opacity="0"/>
	<circle id="Ellipse 19" cx="17.500000" cy="17.500000" r="17.000000" stroke="#868686" stroke-opacity="1.000000" stroke-width="1.000000"/>
	<rect id="mdi:telephone" rx="-0.500000" width="21.000000" height="21.000000" transform="translate(7.500000 7.500000)" fill="#FFFFFF" fill-opacity="0"/>
	<g clip-path="url(#clip1_680)">
		<path id="Vector" d="M13 17C14.33 19.62 17.37 22.66 20 24L22 22C22.25 21.74 22.67 20.89 23 21C24.03 21.34 24.84 22 26 22C26.24 22 26.82 21.82 27 22C27.17 22.17 27 22.75 27 23L27 26C27 26.24 27.17 26.82 27 27C26.82 27.17 26.24 27 26 27C21.81 27 17.95 24.95 15 22C12.04 19.04 10 15.18 10 11C10 10.75 9.82 10.17 10 10C10.17 9.82 10.75 10 11 10L14 10C14.24 10 14.82 9.82 15 10C15.17 10.17 15 10.75 15 11C15 12.15 15.65 12.96 16 14C16.1 14.32 15.25 14.74 15 15L13 17Z" fill="#868686" fill-opacity="1.000000" fill-rule="evenodd"/>
	</g>
</svg>
